<svg id="ac12096e-0916-49b8-9f1b-65956f5dec6c" data-name="Vrstva 1" xmlns="http://www.w3.org/2000/svg" xmlns:xlink="http://www.w3.org/1999/xlink" viewBox="0 0 210 36">
  <defs>
    <style>
      .f376decb-9a14-48df-91f4-092263191e91 {
        fill: #fff;
      }

      .fd9e5cbb-2b81-42e0-8175-de7fb0ff8ee9 {
        fill: url(#f2b0d377-da14-49cc-8662-ab15bea07ea2);
      }

      .b4d70b22-db66-4bcf-b23b-791df4f6d518 {
        fill: url(#bc49a697-36b8-4cb1-8a8b-d0eae0bd56ea);
      }

      .fd96e112-e451-42b2-8109-69f8e2910280 {
        fill: url(#bd3e4b09-a12c-497f-9c09-105dec4fbe90);
      }

      .abfb8635-042b-4ede-a18f-03e88ee04510 {
        fill: #ffc200;
      }
    </style>
    <linearGradient id="f2b0d377-da14-49cc-8662-ab15bea07ea2" data-name="Nepojmenovaný přechod 4" x1="182.61125" y1="-400.23664" x2="178.07708" y2="-390.51308" gradientTransform="matrix(1, 0, 0, -1, 0, -382)" gradientUnits="userSpaceOnUse">
      <stop offset="0.00562" stop-color="#bebebe"/>
      <stop offset="0.04185" stop-color="#c5c5c5"/>
      <stop offset="0.27408" stop-color="#efefef"/>
      <stop offset="0.39326" stop-color="#fff"/>
    </linearGradient>
    <linearGradient id="bc49a697-36b8-4cb1-8a8b-d0eae0bd56ea" data-name="Nepojmenovaný přechod 2" x1="177.60406" y1="-408.42244" x2="168.95527" y2="-398.11521" gradientTransform="matrix(1, 0, 0, -1, 0, -382)" gradientUnits="userSpaceOnUse">
      <stop offset="0" stop-color="#df8200"/>
      <stop offset="0.44346" stop-color="#f2a800"/>
      <stop offset="0.71348" stop-color="#ffc200"/>
      <stop offset="1" stop-color="#ffc200"/>
    </linearGradient>
    <linearGradient id="bd3e4b09-a12c-497f-9c09-105dec4fbe90" data-name="Nepojmenovaný přechod 3" x1="173.18681" y1="-404.22644" x2="193.93008" y2="-404.22644" gradientTransform="matrix(1, 0, 0, -1, -1.93962, -382.6)" gradientUnits="userSpaceOnUse">
      <stop offset="0" stop-color="#ffc200"/>
      <stop offset="1" stop-color="#ffc200"/>
    </linearGradient>
  </defs>
  <rect width="210" height="36" rx="6"/>
  <g>
    <path class="f376decb-9a14-48df-91f4-092263191e91" d="M13.13281,22.35059V12.22852h3.72461a4.91384,4.91384,0,0,1,1.98047.38183,3.314,3.314,0,0,1,1.44238,4.6582,2.87958,2.87958,0,0,1-1.25683,1.0918,4.432,4.432,0,0,1-1.90039.37891H15.19141v3.61133Zm2.03711-5.19336h1.89746a1.70261,1.70261,0,0,0,1.26074-.49414,1.667,1.667,0,0,0,.48926-1.22168,1.50012,1.50012,0,0,0-.51855-1.2002,1.86824,1.86824,0,0,0-1.25977-.44433H15.16992Z"/>
    <path class="f376decb-9a14-48df-91f4-092263191e91" d="M23.56348,14.26562l-1.84082-1.82714h1.51855l1.02246,1.05078.92383-1.05078h1.5957l-1.79882,1.82714Zm-1.55371,8.085V15.11328h1.96679v1.71484a3.13,3.13,0,0,1,.49317-.96972,2.27417,2.27417,0,0,1,.77343-.65137,2.21616,2.21616,0,0,1,1.0293-.23437,1.59441,1.59441,0,0,1,.18555.01074.44127.44127,0,0,1,.12988.03125v1.94629a.47912.47912,0,0,0-.15039-.03516c-.05859-.00488-.11133-.00879-.1582-.01367a3.763,3.763,0,0,0-1.0293.03516,1.65732,1.65732,0,0,0-.69336.28613,1.18727,1.18727,0,0,0-.38476.49707,1.74784,1.74784,0,0,0-.11915.6582v3.96192Z"/>
    <path class="f376decb-9a14-48df-91f4-092263191e91" d="M29.7793,12.23535v1.8418H27.791v-1.8418Zm-.02149,2.87793v7.23731H27.80469V15.11328Z"/>
    <path class="f376decb-9a14-48df-91f4-092263191e91" d="M31.65527,22.35059V11.94922h2.03028v4.207a3.13478,3.13478,0,0,1,.4414-.501,2.202,2.202,0,0,1,.66407-.416,2.49777,2.49777,0,0,1,.97265-.168,2.93077,2.93077,0,0,1,1.26367.26855,2.25454,2.25454,0,0,1,.918.78125,2.17186,2.17186,0,0,1,.34571,1.2461v4.9834H36.24023V17.668a.879.879,0,0,0-.35351-.75293,1.40049,1.40049,0,0,0-.85742-.2627,1.75764,1.75764,0,0,0-.63672.11914,1.16756,1.16756,0,0,0-.501.36133.92947.92947,0,0,0-.19238.59766v4.62012Z"/>
    <path class="f376decb-9a14-48df-91f4-092263191e91" d="M42.25977,22.47656a3.46955,3.46955,0,0,1-1.26661-.18847,1.51953,1.51953,0,0,1-.69238-.501,1.59628,1.59628,0,0,1-.28711-.69238,4.64378,4.64378,0,0,1-.06347-.77344V11.94922h2.002v8.11914a1.12806,1.12806,0,0,0,.1709.64844.86962.86962,0,0,0,.64843.30371l.34278.02148v1.25977c-.13965.04687-.28223.08789-.42676.123A1.85506,1.85506,0,0,1,42.25977,22.47656Z"/>
    <path class="f376decb-9a14-48df-91f4-092263191e91" d="M46.53027,22.49121a2.89968,2.89968,0,0,1-1.24609-.25976,2.05965,2.05965,0,0,1-.875-.752,2.14849,2.14849,0,0,1-.32129-1.20019,2.063,2.063,0,0,1,.88867-1.80957,5.08279,5.08279,0,0,1,2.80664-.64063l.90235-.01465v-.43359a.99188.99188,0,0,0-.29-.7666,1.26748,1.26748,0,0,0-.89942-.2627,1.94383,1.94383,0,0,0-.85058.21,1.08663,1.08663,0,0,0-.54981.707H44.39453a2.17831,2.17831,0,0,1,.45508-1.291,2.44414,2.44414,0,0,1,1.124-.75586,4.86409,4.86409,0,0,1,1.61426-.249,4.78882,4.78882,0,0,1,1.78418.27636,1.92982,1.92982,0,0,1,.97363.791,2.38538,2.38538,0,0,1,.30078,1.22168v5.08887h-1.709l-.168-1.2461a2.26652,2.26652,0,0,1-.92676,1.085A2.7139,2.7139,0,0,1,46.53027,22.49121Zm.68653-1.34473a1.47834,1.47834,0,0,0,.542-.10156,1.66677,1.66677,0,0,0,.46875-.27246,1.45483,1.45483,0,0,0,.333-.38867.87957.87957,0,0,0,.125-.44824V18.86523l-.73438.01368a4.01669,4.01669,0,0,0-.95215.12207,1.57889,1.57889,0,0,0-.71.375.92618.92618,0,0,0-.26953.70019.9554.9554,0,0,0,.34961.78711A1.30078,1.30078,0,0,0,47.2168,21.14648Zm1.09179-8.918H50.415l-2.0791,2.0371H46.86621Z"/>
    <path class="f376decb-9a14-48df-91f4-092263191e91" d="M55.23047,22.49121a4.30759,4.30759,0,0,1-1.45508-.249A2.84223,2.84223,0,0,1,52.5918,21.458a2.609,2.609,0,0,1-.61524-1.38965h1.77051a1.16668,1.16668,0,0,0,.333.60937,1.39134,1.39134,0,0,0,.54883.31836,1.98779,1.98779,0,0,0,.58789.09473,2.07487,2.07487,0,0,0,.94922-.18555.60482.60482,0,0,0,.36035-.57031.57338.57338,0,0,0-.21387-.46875,1.58331,1.58331,0,0,0-.70312-.2666L54.335,19.334a3.48737,3.48737,0,0,1-1.54-.68945,1.74065,1.74065,0,0,1-.59472-1.38281,2.05321,2.05321,0,0,1,.34668-1.16895,2.32177,2.32177,0,0,1,1.02539-.81933,4.11435,4.11435,0,0,1,1.666-.30078,3.5425,3.5425,0,0,1,2.13867.58789,1.97437,1.97437,0,0,1,.81543,1.65918h-1.708a.95461.95461,0,0,0-.416-.64746,1.50144,1.50144,0,0,0-.85156-.22754,1.80047,1.80047,0,0,0-.875.18945.61511.61511,0,0,0-.34278.57324.503.503,0,0,0,.28028.45215,2.95922,2.95922,0,0,0,.86718.2832l1.17676.26563a3.08614,3.08614,0,0,1,.99024.40332,2.18769,2.18769,0,0,1,.59179.55566,1.91789,1.91789,0,0,1,.29.60547,2.17684,2.17684,0,0,1,.08106.54981,1.96645,1.96645,0,0,1-.38575,1.22851,2.37562,2.37562,0,0,1-1.07031.77344A4.37063,4.37063,0,0,1,55.23047,22.49121Z"/>
    <path class="f376decb-9a14-48df-91f4-092263191e91" d="M61.7832,12.23535v1.8418H59.79492v-1.8418Zm-.02148,2.87793v7.23731H59.80859V15.11328Z"/>
    <path class="f376decb-9a14-48df-91f4-092263191e91" d="M68.02734,16.53418H66.417l.01465,3.85644a.89081.89081,0,0,0,.06641.39551.31316.31316,0,0,0,.209.168,1.4238,1.4238,0,0,0,.36817.03906h.97363v1.25977a2.09717,2.09717,0,0,1-.4375.11914,4.78311,4.78311,0,0,1-.83008.05566,3.54172,3.54172,0,0,1-1.47363-.24511,1.42011,1.42011,0,0,1-.72461-.68555,2.41571,2.41571,0,0,1-.20215-1.02246V16.53418H63.2041v-1.4209h1.2461l.51074-2.18457H66.417v2.17676h1.61035Z"/>
    <path class="f376decb-9a14-48df-91f4-092263191e91" d="M72.5,24.60449V15.11328h2.05078l.00684,1.043a2.23687,2.23687,0,0,1,.3955-.47266,2.81269,2.81269,0,0,1,.52149-.375,2.61068,2.61068,0,0,1,.62305-.248,2.777,2.777,0,0,1,.707-.08789,2.50959,2.50959,0,0,1,2.42578,1.61328,5.23778,5.23778,0,0,1,.35937,2.08984,5.1806,5.1806,0,0,1-.38769,2.15918,2.73338,2.73338,0,0,1-1.06738,1.25,2.93273,2.93273,0,0,1-1.53321.40625,2.24816,2.24816,0,0,1-.6582-.09473,2.31536,2.31536,0,0,1-.57031-.26269,2.41544,2.41544,0,0,1-.46875-.38867,2.74177,2.74177,0,0,1-.36133-.4795v3.33887Zm3.61133-3.61133a1.38846,1.38846,0,0,0,1.11719-.55371,2.75287,2.75287,0,0,0,.45117-1.75,2.74614,2.74614,0,0,0-.43067-1.6416,1.34259,1.34259,0,0,0-1.13769-.59082,1.287,1.287,0,0,0-1.17969.64063,3.02268,3.02268,0,0,0-.38867,1.59179,3.64044,3.64044,0,0,0,.17187,1.13477,1.9659,1.9659,0,0,0,.51758.84668A1.24139,1.24139,0,0,0,76.11133,20.99316Z"/>
    <path class="f376decb-9a14-48df-91f4-092263191e91" d="M82.50195,14.26562l-1.84082-1.82714h1.51856l1.02246,1.05078.9248-1.05078h1.59571l-1.79883,1.82714Zm-1.55371,8.085V15.11328H82.915v1.71484a3.13016,3.13016,0,0,1,.49316-.96972,2.29278,2.29278,0,0,1,.77344-.65137,2.21611,2.21611,0,0,1,1.0293-.23437,1.5941,1.5941,0,0,1,.18554.01074.42533.42533,0,0,1,.12989.03125v1.94629a.47269.47269,0,0,0-.15039-.03516c-.0586-.00488-.11133-.00879-.15723-.01367a3.75949,3.75949,0,0,0-1.0293.03516,1.65737,1.65737,0,0,0-.69336.28613,1.17188,1.17188,0,0,0-.38476.49707,1.729,1.729,0,0,0-.11914.6582v3.96192Z"/>
    <path class="f376decb-9a14-48df-91f4-092263191e91" d="M88.27734,19.20117a2.27838,2.27838,0,0,0,.17578.96192,1.39066,1.39066,0,0,0,.52735.62988,1.52452,1.52452,0,0,0,.83789.2207,1.83384,1.83384,0,0,0,.91992-.22363,1.19191,1.19191,0,0,0,.54883-.73535h1.8418a2.48034,2.48034,0,0,1-.61329,1.3164,3.24553,3.24553,0,0,1-1.19335.833,4.01285,4.01285,0,0,1-3.3418-.165A3.19473,3.19473,0,0,1,86.709,20.76172a3.97835,3.97835,0,0,1-.4541-1.94629,4.512,4.512,0,0,1,.41309-1.956,3.2707,3.2707,0,0,1,1.20019-1.37891,3.415,3.415,0,0,1,1.89356-.50781,3.46654,3.46654,0,0,1,1.8584.46582,2.92315,2.92315,0,0,1,1.13379,1.29492,4.54311,4.54311,0,0,1,.38183,1.91406v.55371Zm-.00683-1.21875h2.9541a1.95131,1.95131,0,0,0-.16113-.79785,1.29385,1.29385,0,0,0-.48633-.57422,1.47916,1.47916,0,0,0-.81543-.21,1.39983,1.39983,0,0,0-.8086.22754,1.4968,1.4968,0,0,0-.50781.5918A1.74743,1.74743,0,0,0,88.27051,17.98242Z"/>
    <path class="f376decb-9a14-48df-91f4-092263191e91" d="M97.39844,22.49121a4.30345,4.30345,0,0,1-1.45508-.249,2.84223,2.84223,0,0,1-1.18359-.78418,2.61731,2.61731,0,0,1-.61622-1.38965h1.77051a1.17347,1.17347,0,0,0,.333.60937,1.4018,1.4018,0,0,0,.54981.31836,1.98289,1.98289,0,0,0,.58789.09473,2.07048,2.07048,0,0,0,.94824-.18555.60482.60482,0,0,0,.36035-.57031.57259.57259,0,0,0-.21289-.46875,1.5833,1.5833,0,0,0-.70313-.2666L96.50195,19.334a3.48328,3.48328,0,0,1-1.53906-.68945,1.74134,1.74134,0,0,1-.5957-1.38281,2.04666,2.04666,0,0,1,.34765-1.16895,2.32188,2.32188,0,0,1,1.02539-.81933,4.11118,4.11118,0,0,1,1.666-.30078,3.53739,3.53739,0,0,1,2.1377.58789,1.97442,1.97442,0,0,1,.81543,1.65918h-1.707a.95911.95911,0,0,0-.417-.64746,1.50032,1.50032,0,0,0-.85058-.22754,1.79786,1.79786,0,0,0-.875.18945.616.616,0,0,0-.34375.57324.50393.50393,0,0,0,.28125.45215,2.93867,2.93867,0,0,0,.86718.2832l1.17578.26563a3.06756,3.06756,0,0,1,.99024.40332,2.18774,2.18774,0,0,1,.5918.55566,1.92162,1.92162,0,0,1,.291.60547,2.21659,2.21659,0,0,1,.08008.54981,1.97186,1.97186,0,0,1-.38477,1.22851,2.381,2.381,0,0,1-1.07031.77344A4.378,4.378,0,0,1,97.39844,22.49121Z"/>
    <path class="f376decb-9a14-48df-91f4-092263191e91" d="M104.74121,22.35059V15.11328h2.002v1.02149a2.92894,2.92894,0,0,1,.88575-.81934,2.63258,2.63258,0,0,1,1.40332-.34277,2.32768,2.32768,0,0,1,.75586.13281,2.64475,2.64475,0,0,1,.72461.38867,1.99486,1.99486,0,0,1,.5498.64063,2.873,2.873,0,0,1,.91992-.82911,2.48153,2.48153,0,0,1,1.27149-.333,2.72388,2.72388,0,0,1,.82226.13281,2.17777,2.17777,0,0,1,.76563.43457,2.132,2.132,0,0,1,.56445.80176,3.163,3.163,0,0,1,.21289,1.23535v4.77344H113.5752V17.8291a1.26264,1.26264,0,0,0-.1709-.69629.997.997,0,0,0-.43457-.3789,1.379,1.379,0,0,0-.55664-.11524,1.52349,1.52349,0,0,0-.55274.1084,1.14229,1.14229,0,0,0-.47558.34668.9487.9487,0,0,0-.19727.623v4.63379h-2.03613V17.64648a.87393.87393,0,0,0-.17481-.55273,1.12414,1.12414,0,0,0-.4375-.33984,1.33336,1.33336,0,0,0-.53515-.11524,1.47262,1.47262,0,0,0-.56055.11524,1.126,1.126,0,0,0-.46875.35742.9483.9483,0,0,0-.18945.60547v4.63379Z"/>
    <path class="f376decb-9a14-48df-91f4-092263191e91" d="M120.38672,22.49121a3.642,3.642,0,0,1-1.85156-.45508,3.092,3.092,0,0,1-1.21875-1.28808,4.2493,4.2493,0,0,1-.42969-1.97461,4.3752,4.3752,0,0,1,.42969-1.99414,3.20077,3.20077,0,0,1,1.21875-1.33008,3.52435,3.52435,0,0,1,1.85839-.47656,3.56277,3.56277,0,0,1,1.8545.46582,3.10881,3.10881,0,0,1,1.21093,1.31933,4.45066,4.45066,0,0,1,.42774,2.01563,4.26291,4.26291,0,0,1-.417,1.92871,3.15463,3.15463,0,0,1-1.19629,1.3125A3.56214,3.56214,0,0,1,120.38672,22.49121Zm.00683-1.51953a1.20515,1.20515,0,0,0,.86817-.31445,1.83332,1.83332,0,0,0,.47851-.83008,3.94375,3.94375,0,0,0,.15039-1.123,4.1965,4.1965,0,0,0-.13574-1.085,1.72875,1.72875,0,0,0-.46582-.82617,1.2401,1.2401,0,0,0-.89551-.31543,1.25983,1.25983,0,0,0-.87207.29785,1.72877,1.72877,0,0,0-.48632.80469,3.86653,3.86653,0,0,0-.1543,1.124,4.15857,4.15857,0,0,0,.14062,1.08789,1.86049,1.86049,0,0,0,.46875.85059A1.21838,1.21838,0,0,0,120.39355,20.97168Z"/>
    <path class="f376decb-9a14-48df-91f4-092263191e91" d="M127.51172,22.30176a2.468,2.468,0,0,1-.57422,1.77832,2.49618,2.49618,0,0,1-1.86133.59472,1.85228,1.85228,0,0,1-.92383-.20312l-.00781-1.36523.56055-.05567a.97123.97123,0,0,0,.60156-.23828.75563.75563,0,0,0,.168-.53125v-7.168h2.03711Zm.02148-10.06641v1.8418h-2.08593v-1.8418Z"/>
    <path class="f376decb-9a14-48df-91f4-092263191e91" d="M130.96289,19.20117a2.27822,2.27822,0,0,0,.17578.96192,1.39066,1.39066,0,0,0,.52735.62988,1.52452,1.52452,0,0,0,.83789.2207,1.83384,1.83384,0,0,0,.91992-.22363,1.192,1.192,0,0,0,.54883-.73535h1.84179a2.48025,2.48025,0,0,1-.61328,1.3164,3.24549,3.24549,0,0,1-1.19336.833,4.01283,4.01283,0,0,1-3.34179-.165,3.19473,3.19473,0,0,1-1.27149-1.27734,3.97835,3.97835,0,0,1-.4541-1.94629,4.51186,4.51186,0,0,1,.41309-1.956,3.2707,3.2707,0,0,1,1.20019-1.37891,3.415,3.415,0,0,1,1.89356-.50781,3.46648,3.46648,0,0,1,1.85839.46582,2.923,2.923,0,0,1,1.13379,1.29492,4.543,4.543,0,0,1,.38184,1.91406v.55371Zm-.00684-1.21875h2.95411a1.95116,1.95116,0,0,0-.16114-.79785,1.29383,1.29383,0,0,0-.48632-.57422,1.47916,1.47916,0,0,0-.81543-.21,1.39981,1.39981,0,0,0-.8086.22754,1.49672,1.49672,0,0,0-.50781.5918A1.74744,1.74744,0,0,0,130.95605,17.98242Z"/>
    <path class="f376decb-9a14-48df-91f4-092263191e91" d="M137.543,12.22852h2.03711V22.35059H137.543Z"/>
    <path class="f376decb-9a14-48df-91f4-092263191e91" d="M141.84766,12.22852h1.26367c.32031,0,.63867.002.959.0039s.58692.00586.80176.01074a6.73085,6.73085,0,0,1,3.00293.65723,3.8458,3.8458,0,0,1,1.70508,1.72266,5.88806,5.88806,0,0,1,.542,2.61816,5.99623,5.99623,0,0,1-.57422,2.71875,3.98808,3.98808,0,0,1-1.75293,1.76758,6.37213,6.37213,0,0,1-2.99316.623h-2.9541Zm2.05859,1.65234v6.81836h.9375a3.64811,3.64811,0,0,0,1.57813-.33594,2.54671,2.54671,0,0,0,1.13867-1.09961,4.18652,4.18652,0,0,0,.42578-2.03711,4.22073,4.22073,0,0,0-.377-1.9209,2.36176,2.36176,0,0,0-1.07813-1.082,3.7355,3.7355,0,0,0-1.65918-.34277Z"/>
  </g>
  <g>
    <path class="f376decb-9a14-48df-91f4-092263191e91" d="M187.76375,7.88919H179.415v11.838a26.30822,26.30822,0,0,1,4.23856-2.48543V12.127h4.11023v.00785a5.99065,5.99065,0,0,1,0,11.9813v.00342h-4.11023V20.42069c0-.106-.09636-.10453-.14429-.06933a19.54639,19.54639,0,0,0-4.09427,3.829v4.18122h8.34878a10.23618,10.23618,0,0,0,0-20.47236Z"/>
    <polygon class="fd9e5cbb-2b81-42e0-8175-de7fb0ff8ee9" points="183.654 17.242 179.415 19.727 179.415 7.889 183.654 12.127 183.654 17.242"/>
    <rect class="b4d70b22-db66-4bcf-b23b-791df4f6d518" x="171.24719" y="14.19207" width="4.06496" height="14.15351"/>
    <path class="fd96e112-e451-42b2-8109-69f8e2910280" d="M191.99022,15.34086a.48471.48471,0,0,0-.12069-.30949.571.571,0,0,0-.502-.11726,25.93719,25.93719,0,0,0-20.12033,13.43147h4.065A26.28056,26.28056,0,0,1,191.665,15.71847C191.91671,15.63464,191.99541,15.47977,191.99022,15.34086Z"/>
    <path class="abfb8635-042b-4ede-a18f-03e88ee04510" d="M173.27929,7.63845a2.43162,2.43162,0,1,1-2.43136,2.43187v-.00051A2.43334,2.43334,0,0,1,173.27929,7.63845Z"/>
  </g>
</svg>
